# xmcd CD database file
#
# Track frame offsets:
#	150
#	14448
#	29272
#	50489
#	71669
#	85514
#	92349
#	107482
#	130855
#	152302
#	173567
#	193499
#	196318
#
# Disc length: 2785 seconds
#
# Revision: 0
# Processed by: cddbd v1.5.2PL0 Copyright (c) Steve Scherf et al.
# Submitted via: CDex 1.70beta2
#
DISCID=9b0adf0d
DTITLE=Blu-Swing - FIND YOUR WAY
DYEAR=2012
DGENRE=Jazz
TTITLE0=FIND YOUR WAY
TTITLE1=蜃気楼 feat. Vasko Vassilev and Pamela Nicholson
TTITLE2=太陽のベール feat. Vasko Vassilev and Pamela Nicholson
TTITLE3=IT WAS YOU
TTITLE4=SAY YOU LOVE ME
TTITLE5=INTERLUDE
TTITLE6=DAYS OF LIFE
TTITLE7=THE LIGHT
TTITLE8=RAY OF SUNLIGHT
TTITLE9=LAIRA
TTITLE10=FREE
TTITLE11=BARCELONA
TTITLE12=ひとひら
EXTD=YEAR: 2012
EXTT0=
EXTT1=
EXTT2=
EXTT3=
EXTT4=
EXTT5=
EXTT6=
EXTT7=
EXTT8=
EXTT9=
EXTT10=
EXTT11=
EXTT12=
PLAYORDER=
